# xmcd CD database file
# Copyright (C) 1993-1998 Ti Kan
#
# Track frame offsets:
#	150
#	21330
#	37480
#	53992
#	84080
#	98397
#	114665
#	131877
#	151532
#	176905
#	192722
#	217970
#	240730
#
# Disc length: 3496 seconds
#
# Revision: 1
# Processed by: cddbd v1.4b41PL1 Copyright (c) Steve Scherf et al.
# Submitted via: CDValet v3.31 - Copyright (c) 1997 Greg Leichner
#
DISCID=b20da60d
DTITLE=Indigenous - Love-in-a-Mist
DYEAR=1900
DGENRE=
TTITLE0=Waitin'
TTITLE1=Walked With You
TTITLE2=Don't Know What I'll Do
TTITLE3=Dark Side of the City
TTITLE4=Talkin' to My baby
TTITLE5=Little Baby (Hold My Hand)
TTITLE6=I Need You
TTITLE7=24 Hours a Day
TTITLE8=The Fault's My Own
TTITLE9=Movin' Outta Town
TTITLE10=It's One of Those Things
TTITLE11=Track Title Unknown
TTITLE12=Awake
EXTD=
EXTT0=
EXTT1=
EXTT2=
EXTT3=
EXTT4=
EXTT5=
EXTT6=
EXTT7=
EXTT8=
EXTT9=
EXTT10=
EXTT11=
EXTT12=
PLAYORDER=
